<svg xmlns="http://www.w3.org/2000/svg" viewBox="0 0 480 320" fill="none">
  
  <defs>
    <radialGradient id="ring" cx="50%" cy="50%" r="50%">
      <stop offset="0%" stop-color="#6DF7B5" stop-opacity="0"></stop>
      <stop offset="80%" stop-color="#6DF7B5" stop-opacity="0.18"></stop>
      <stop offset="100%" stop-color="#6DF7B5" stop-opacity="0"></stop>
    </radialGradient>
  </defs>
  <rect width="480" height="320" fill="#070B12"></rect>

  
  <g transform="translate(240 170)" stroke="#6DF7B5" fill="none">
    <circle r="40" opacity="0.85"></circle>
    <circle r="70" opacity="0.55" stroke-dasharray="2 3"></circle>
    <circle r="105" opacity="0.35" stroke-dasharray="2 4"></circle>
    <circle r="145" opacity="0.18" stroke-dasharray="2 5"></circle>
  </g>
  <circle cx="240" cy="170" r="160" fill="url(#ring)"></circle>

  
  <g transform="translate(240 170)" stroke="#F4F7F2" stroke-width="1.4" fill="#070B12">
    
    <line x1="-22" y1="-22" x2="22" y2="22" stroke="#F4F7F2"></line>
    <line x1="-22" y1="22" x2="22" y2="-22" stroke="#F4F7F2"></line>
    
    <circle cx="-22" cy="-22" r="8" stroke="#6DF7B5"></circle>
    <circle cx="22" cy="-22" r="8" stroke="#6DF7B5"></circle>
    <circle cx="-22" cy="22" r="8" stroke="#6DF7B5"></circle>
    <circle cx="22" cy="22" r="8" stroke="#6DF7B5"></circle>
    
    <g opacity="0.5">
      <line x1="-30" y1="-22" x2="-14" y2="-22" stroke="#6DF7B5"></line>
      <line x1="-22" y1="-30" x2="-22" y2="-14" stroke="#6DF7B5"></line>
      <line x1="14" y1="-22" x2="30" y2="-22" stroke="#6DF7B5"></line>
      <line x1="22" y1="-30" x2="22" y2="-14" stroke="#6DF7B5"></line>
      <line x1="-30" y1="22" x2="-14" y2="22" stroke="#6DF7B5"></line>
      <line x1="-22" y1="14" x2="-22" y2="30" stroke="#6DF7B5"></line>
      <line x1="14" y1="22" x2="30" y2="22" stroke="#6DF7B5"></line>
      <line x1="22" y1="14" x2="22" y2="30" stroke="#6DF7B5"></line>
    </g>
    
    <rect x="-6" y="-6" width="12" height="12" fill="#070B12" stroke="#6DF7B5"></rect>
    <circle cx="0" cy="0" r="2" fill="#6DF7B5"></circle>
  </g>

  
  <g font-family="JetBrains Mono, monospace" font-size="9" letter-spacing="0.22em">
    <text x="16" y="20" fill="#6B7670">UNIT-04 / QUAD / 2.4GHz</text>
    <text x="16" y="302" fill="#6B7670">RSSI -68dBm</text>
    <text x="380" y="302" fill="#6DF7B5">LINK OK</text>
  </g>

  
  <g stroke="#F4F7F2" stroke-width="1" opacity="0.5">
    <path d="M8 8 L8 24 M8 8 L24 8"></path>
    <path d="M472 8 L472 24 M472 8 L456 8"></path>
    <path d="M8 312 L8 296 M8 312 L24 312"></path>
    <path d="M472 312 L472 296 M472 312 L456 312"></path>
  </g>
</svg>